# xmcd CD database file
#
# Track frame offsets:
#	150
#	17696
#	33937
#	50891
#	77867
#	93517
#	112100
#	138313
#	155481
#	176534
#	207888
#	233685
#	258842
#
# Disc length: 3716 seconds
#
# Revision: 2
# Processed by: cddbd v1.5.2PL0 Copyright (c) Steve Scherf et al.
# Submitted via: CDex 1.77
#
DISCID=a90e820d
DTITLE=Bruce Springsteen - Wrecking Ball
DYEAR=2012
DGENRE=Pop,Rock
TTITLE0=We take care of our own
TTITLE1=Easy Money
TTITLE2=Shackled and drawn
TTITLE3=Jack of all Trades
TTITLE4=Death to my Hometown
TTITLE5=This Depression
TTITLE6=Wrecking Ball
TTITLE7=You've got it
TTITLE8=Rocky Ground
TTITLE9=Land of Hope and Dreams
TTITLE10=We are Alive
TTITLE11=Swallowed up (In the Belly of the Whale)
TTITLE12=American Land
EXTD=YEAR: 2012
EXTT0=
EXTT1=
EXTT2=
EXTT3=
EXTT4=
EXTT5=
EXTT6=
EXTT7=
EXTT8=
EXTT9=
EXTT10=
EXTT11=
EXTT12=
PLAYORDER=
